<svg width="145" height="177" viewBox="0 0 145 177" fill="none" xmlns="http://www.w3.org/2000/svg">
<g clip-path="url(#clip0_2418_44842)">
<rect y="-0.000488281" width="294" height="359" fill="url(#paint0_linear_2418_44842)"/>
<path d="M-24.6404 -0.60351L75.7845 184.191L-10.3707 -8.9464L-24.6404 -0.60351ZM-67.2702 36.6415L75.7845 184.191L-55.6873 24.306L-67.2702 36.6415ZM-0.161079 -13.9521L75.8442 184.191L15.0639 -20.0305L-0.161079 -13.9521ZM25.8109 -23.4273L75.8442 184.191L41.6329 -27.122L25.8109 -23.4273ZM52.7381 -28.7906L75.7845 184.191L68.9183 -30.042L52.7381 -28.7906ZM-116.527 141.881L75.7845 184.191L-112.766 124.599L-116.527 141.881ZM-98.7351 85.3878L75.7845 184.132L-90.7345 70.0131L-98.7351 85.3878ZM-109.422 112.919L75.7845 184.132L-103.512 96.4124L-109.422 112.919ZM-84.5848 59.8228L75.7845 184.191L-74.6737 45.7591L-84.5848 59.8228ZM-47.1494 16.3802L75.7845 184.191L-34.1336 5.89202L-47.1494 16.3802ZM254.065 96.7103L75.7845 184.191L260.155 113.217L254.065 96.7103ZM80.143 -30.042L75.7845 184.191L96.3232 -28.7906L80.143 -30.042ZM224.631 45.9975L75.7845 184.191L234.661 60.0612L224.631 45.9975ZM263.678 124.897L75.7845 184.191L267.619 142.179L263.678 124.897ZM240.99 70.2515L75.7845 184.191L249.11 85.6858L240.99 70.2515ZM134.117 -19.9113L75.7845 184.191L149.461 -13.833L134.117 -19.9113ZM107.428 -27.0624L75.7845 184.191L123.37 -23.3081L107.428 -27.0624ZM205.405 24.4847L75.7845 184.191L217.108 36.8799L205.405 24.4847ZM159.671 -8.82722L75.7845 184.191L174.06 -0.424736L159.671 -8.82722ZM183.613 6.0708L75.7845 184.191L196.748 16.559L183.613 6.0708Z" fill="url(#paint1_radial_2418_44842)" fill-opacity="0.05"/>
<path d="M130.061 18.8126L137.805 27.0457L149.052 25.0692L143.713 35.2418L148.667 45.2545L137.681 43.1976L129.535 51.2027L128.186 40.0693L117.997 34.7242L128.378 29.9767L130.061 18.8126Z" fill="white"/>
<path d="M12.1171 79.2154L15.7113 89.9206L26.7591 92.8049L17.6517 99.8278L17.9657 110.989L8.84193 104.548L-1.9097 108.433L1.52091 97.7531L-5.50238 88.6554L5.91764 88.661L12.1171 79.2154Z" fill="white"/>
<path d="M24.4017 20.0729L26.2055 25.4453L31.7497 26.8927L27.1792 30.4171L27.3368 36.0184L22.7581 32.7858L17.3625 34.7354L19.0841 29.3759L15.5595 24.8103L21.2906 24.8131L24.4017 20.0729Z" fill="white"/>
<path d="M130.778 112.92L132.581 118.292L138.126 119.74L133.555 123.264L133.713 128.866L129.134 125.633L123.738 127.583L125.46 122.223L121.936 117.657L127.667 117.66L130.778 112.92Z" fill="white"/>
<path d="M62.6157 0L64.173 7.24204L72.5821 9.13128L64.173 11.3354L62.6157 19.2071L60.4356 11.3354L52.3379 9.13128L60.4356 7.24204L62.6157 0Z" fill="#FFE91B"/>
<path d="M124.83 70.9185L126.387 78.1605L134.796 80.0497L126.387 82.2538L124.83 90.1256L122.649 82.2538L114.552 80.0497L122.649 78.1605L124.83 70.9185Z" fill="#FFE91B"/>
<path d="M38.4214 129.033L39.9786 136.275L48.3878 138.164L39.9786 140.368L38.4214 148.24L36.2413 140.368L28.1436 138.164L36.2413 136.275L38.4214 129.033Z" fill="#FFE91B"/>
<path d="M106.727 4.43213L107.487 7.9603L111.589 8.8807L107.487 9.95449L106.727 13.7895L105.664 9.95449L101.714 8.8807L105.664 7.9603L106.727 4.43213Z" fill="#FFE91B"/>
<path d="M0.820897 53.189L1.61851 56.7171L5.92562 57.6375L1.61851 58.7113L0.820897 62.5463L-0.295758 58.7113L-4.44336 57.6375L-0.295758 56.7171L0.820897 53.189Z" fill="#FFE91B"/>
<path d="M143.76 67.4712L144.519 71.1851L148.621 72.1539L144.519 73.2842L143.76 77.321L142.696 73.2842L138.746 72.1539L142.696 71.1851L143.76 67.4712Z" fill="#FFE91B"/>
<ellipse opacity="0.5" cx="73" cy="159" rx="29" ry="8.5" fill="#005596"/>
<path d="M90.8143 69.8222C101.229 59.3701 101.229 42.4239 90.8143 31.9718C80.3994 21.5196 63.5137 21.5196 53.0989 31.9718C42.6841 42.4239 42.6841 59.3701 53.0989 69.8222C63.5137 80.2743 80.3994 80.2743 90.8143 69.8222Z" fill="#FFD21C"/>
<path d="M63.6651 55.6814L62.1981 53.7744L61.3924 52.1079L56.8932 50.9922L55.6688 49.8735L53.2834 49.7663L52.3853 49.1142L53.1679 48.4911L52.1456 48.7055L51.2475 49.5054L50.4794 50.2039L48.8276 50.3227L47.0371 49.7836L46.3614 46.5609L47.2797 44.7612L46.6357 43.1382L46.4163 43.1846C45.934 44.7988 45.5932 46.474 45.4229 48.1984C45.7001 48.494 45.7405 48.6795 45.7405 48.6795L46.7657 50.2995L48.8391 52.1949L47.8111 55.2901L47.3461 57.4405C47.3461 57.4405 47.837 61.2371 51.8886 62.7528L52.2554 64.5091C52.2554 64.5091 52.5124 65.3727 53.4336 65.4075L53.2546 69.6504C53.2546 69.6504 53.2632 69.804 53.2979 70.0155C54.967 71.6559 56.8499 73.076 58.9002 74.2323L58.9406 73.8787L61.3346 71.8443L63.1424 66.645L65.9031 64.9148C65.9031 64.9148 66.8676 63.3353 66.9138 60.6488C66.9138 60.6488 68.5801 59.1504 68.1816 57.2463L63.6622 55.6756L63.6651 55.6814ZM80.3652 25.4973L77.9943 26.5783L78.3408 29.7836L79.5479 29.3141L80.6973 30.0647L82.3895 29.7836L82.2307 31.5746L81.0842 34.1105L78.6845 35.3828C78.6845 35.3828 79.8627 37.7332 81.1016 37.4724C82.3433 37.2115 83.3685 35.9248 83.3685 35.9248L83.4262 34.3829L85.1156 35.1741L86.1494 34.6496L86.7905 35.89L87.8619 36.2754L89.5541 35.9943L90.2328 36.6928L91.8788 37.6462L92.5199 38.8866L90.2848 39.1301L87.55 37.7187L81.7946 38.2462L78.9646 40.3734L75.3837 43.6512L77.229 47.0072L76.3136 50.6415C76.3136 50.6415 80.0937 54.5076 83.8017 53.6498C87.5067 52.7919 87.7753 53.3455 87.7753 53.3455L88.939 52.7166L89.2163 54.0352L89.2509 57.4695L90.4609 59.9677L89.5917 62.3674L91.2406 66.6073L90.1288 69.6707L90.5013 70.117C95.503 65.251 98.6189 58.4433 98.6189 50.8994C98.6189 39.0663 90.9634 29.0359 80.3565 25.5002L80.3652 25.4973ZM47.1844 40.9849L50.0491 41.9587L51.3111 42.5325L52.2785 41.3356L51.2764 37.6462L52.5586 35.7711L54.6494 32.6528L63.5524 30.7748L65.3053 28.9518L67.0178 27.6738L69.406 26.7116L69.9605 24.2134C59.5904 24.9843 50.875 31.7022 47.1844 40.9849Z" fill="#FFBE1C"/>
<path d="M58.9435 73.9626L61.3375 71.9281L63.1453 66.7289L65.906 64.9987C65.906 64.9987 66.8705 63.4192 66.9167 60.7326C66.9167 60.7326 68.583 59.2343 68.1845 57.3302L63.6651 55.7594L62.1981 53.8524L61.3924 52.186L56.8932 51.0702L55.6687 49.9515L53.2834 49.8414L52.3853 49.1893L53.1679 48.5662L52.1456 48.7807L51.2475 49.5806L50.4794 50.279L48.8276 50.3979L47.0371 49.8588L46.3614 46.6361L47.2797 44.8363L46.6357 43.2134L46.4163 43.2598C45.934 44.874 45.5932 46.5491 45.4229 48.2735C45.7001 48.5691 45.7405 48.7546 45.7405 48.7546L46.7657 50.3747L48.8391 52.2701L47.8111 55.3653L47.3461 57.5157C47.3461 57.5157 47.837 61.3122 51.8886 62.828L52.2554 64.5842C52.2554 64.5842 52.5124 65.4479 53.4336 65.4827L53.2546 69.7255C53.2546 69.7255 53.2603 69.8357 53.2834 69.9951C54.9584 71.6441 56.847 73.07 58.9089 74.2321L58.9406 73.9539L58.9435 73.9626Z" fill="#FFEF66"/>
<path d="M98.6247 50.9344C98.6247 50.8127 98.6189 50.691 98.6161 50.5693C98.6132 50.3055 98.6074 50.0418 98.5958 49.7781C98.5843 49.4882 98.5641 49.2013 98.5439 48.9144C98.5381 48.8449 98.5323 48.7724 98.5265 48.7028C97.6169 37.8725 90.2819 28.8825 80.3623 25.5786L77.9914 26.6596L78.338 29.865L79.5451 29.3955L80.6944 30.1461L82.3867 29.865L82.2278 31.656L81.0814 34.1919L78.6816 35.4642C78.6816 35.4642 79.8598 37.8145 81.0987 37.5537C82.3404 37.2929 83.3656 36.0061 83.3656 36.0061L83.4234 34.4643L85.1127 35.2555L86.1466 34.7309L86.7876 35.9713L87.859 36.3568L89.5513 36.0757L90.2299 36.7741L91.8759 37.7276L92.517 38.968L90.2819 39.2114L87.5471 37.8001L81.7918 38.3275L78.9617 40.4548L75.3809 43.7325L77.2262 47.0886L76.3107 50.7229C76.3107 50.7229 80.0909 54.589 83.7988 53.7311C87.5038 52.8733 87.7724 53.4268 87.7724 53.4268L88.9362 52.7979L89.2134 54.1166L89.2481 57.5509L90.458 60.0491L89.5888 62.4487L91.2377 66.6887L90.1259 69.752L90.4609 70.152C95.477 65.2918 98.6045 58.4812 98.6161 50.9344H98.6247Z" fill="#FFEF66"/>
<path d="M47.1846 41.0689L50.0493 42.0427L51.3112 42.6165L52.2786 41.4196L51.2766 37.7302L52.5588 35.8551L54.6495 32.7367L63.5526 30.8587L65.3055 29.0358L67.0179 27.7577L69.4062 26.7956L69.9606 24.2974C59.5905 25.0683 50.8752 31.7833 47.1846 41.0689Z" fill="#FFEF66"/>
<path d="M98.5699 49.2444C98.5526 48.9546 98.5324 48.6677 98.5035 48.3808C98.4891 48.233 98.4746 48.0881 98.4602 47.9432C98.4284 47.6592 98.3938 47.378 98.3534 47.0998C98.336 46.9694 98.3187 46.8361 98.2985 46.7057C98.2378 46.326 98.1714 45.9493 98.0963 45.5725C98.0877 45.5319 98.0819 45.4942 98.0732 45.4537C97.9953 45.0769 97.9086 44.7031 97.8162 44.3321C97.7816 44.193 97.744 44.0568 97.7065 43.9206C97.6401 43.6684 97.5679 43.4163 97.4928 43.167C97.4466 43.0134 97.4004 42.8627 97.3513 42.7091C97.2762 42.4715 97.1954 42.2367 97.1145 42.002C97.0625 41.8542 97.0134 41.7064 96.9585 41.5615C96.8546 41.2804 96.742 41.0021 96.6293 40.7239C96.56 40.5587 96.4907 40.3935 96.4214 40.2283C96.3059 39.9617 96.1875 39.698 96.0633 39.4371C95.9854 39.2748 95.9045 39.1125 95.8236 38.9503C95.7312 38.7648 95.6388 38.5793 95.5406 38.3967C95.4482 38.2228 95.3558 38.0518 95.2605 37.8808C95.1681 37.7127 95.0728 37.5505 94.9775 37.3853C94.8736 37.2085 94.7725 37.0346 94.6656 36.8607C94.5732 36.7129 94.4779 36.568 94.3855 36.4202C94.1574 36.0666 93.9235 35.7188 93.678 35.374C93.6029 35.2667 93.5278 35.1595 93.4499 35.0523C93.3084 34.8581 93.1582 34.6668 93.0109 34.4755C92.9272 34.3683 92.8434 34.2611 92.7597 34.1538C92.6038 33.9597 92.4478 33.7684 92.289 33.58C92.2139 33.4902 92.1359 33.4003 92.058 33.3105C91.8847 33.1105 91.7085 32.9105 91.5295 32.7164C91.5064 32.6932 91.4833 32.6671 91.4602 32.6439C90.8075 31.9426 90.1174 31.276 89.3925 30.65C89.3463 30.6094 89.3001 30.5688 89.2539 30.5312C89.0258 30.337 88.7948 30.1428 88.558 29.9573C88.5204 29.9255 88.48 29.8965 88.4396 29.8646C87.3942 29.0386 86.2853 28.288 85.1186 27.6243L85.0955 27.6098C84.8009 27.4418 84.5064 27.2824 84.206 27.1259C84.1974 27.123 84.1887 27.1172 84.1829 27.1143C82.9643 26.4825 81.6879 25.9405 80.3682 25.5L77.9973 26.581L78.3438 29.7863L79.5509 29.3168L80.7003 30.0675L82.3925 29.7863L82.2337 31.5774L81.0872 34.1133L78.6875 35.3855C78.6875 35.3855 79.8657 37.7359 81.1046 37.4751C82.3463 37.2143 83.3715 35.9275 83.3715 35.9275L83.4292 34.3857L85.1186 35.1769L86.1524 34.6523L86.7935 35.8927L87.8649 36.2782L89.5571 35.9971L90.2358 36.6955L91.8818 37.649L92.5229 38.8894L90.2877 39.1328L87.553 37.7214L81.7976 38.2489L78.9676 40.3761L75.3867 43.6539L77.232 47.01L76.3166 50.6442C76.3166 50.6442 80.0967 54.5104 83.8046 53.6525C87.5097 52.7947 87.7782 53.3482 87.7782 53.3482L88.942 52.7193L89.2193 54.038L89.2539 57.4722L90.4639 59.9704L89.5947 62.3701L91.2436 66.6101L90.1318 69.6734L90.5043 70.1197C91.7519 68.9054 92.8839 67.5694 93.8773 66.1319L93.883 66.1232C94.1256 65.7725 94.3595 65.416 94.5848 65.0509C94.5906 65.0393 94.5992 65.0277 94.605 65.0161C94.8245 64.6625 95.0353 64.3032 95.2374 63.9409C95.249 63.9177 95.2634 63.8945 95.275 63.8742C95.4713 63.5236 95.6562 63.1642 95.8352 62.8019C95.8525 62.7671 95.8727 62.7324 95.8901 62.6947C96.0604 62.3469 96.2222 61.9933 96.3781 61.6369C96.4012 61.5847 96.4243 61.5354 96.4474 61.4862C96.5947 61.1442 96.7333 60.7964 96.8661 60.4457C96.8921 60.3791 96.9181 60.3124 96.9441 60.2458C97.0683 59.9096 97.1838 59.5676 97.2964 59.2256C97.3224 59.1416 97.3542 59.0604 97.3802 58.9764C97.4841 58.6489 97.5765 58.3185 97.6661 57.9881C97.6949 57.8867 97.7267 57.7852 97.7527 57.6809C97.8364 57.365 97.9086 57.0433 97.9779 56.7216C98.0039 56.6028 98.0357 56.484 98.0588 56.3652C98.1223 56.0551 98.1772 55.7392 98.2292 55.4262C98.2523 55.2928 98.2783 55.1624 98.3014 55.0262C98.3505 54.7161 98.3851 54.4031 98.4227 54.0901C98.44 53.9481 98.4602 53.809 98.4746 53.6699C98.5093 53.3424 98.5295 53.0091 98.5526 52.6758C98.5613 52.5483 98.5757 52.4208 98.5815 52.2933C98.6046 51.8325 98.6161 51.3688 98.6161 50.8993C98.6161 50.4761 98.6046 50.0559 98.5844 49.6386C98.5786 49.5082 98.5671 49.3749 98.5613 49.2444H98.5699Z" fill="#FFB51C"/>
<path d="M69.9607 24.2134C65.4239 24.5496 61.2049 26.0247 57.5865 28.3548L57.5807 28.3606C55.7729 29.5228 54.1153 30.8994 52.6425 32.4557L52.6339 32.4644C50.315 34.9104 48.4552 37.7969 47.1875 40.9878L50.0522 41.9616L51.3142 42.5354L52.2816 41.3385L51.2795 37.6491L52.5617 35.774L54.6525 32.6557L63.5555 30.7777L65.3084 28.9547L67.0209 27.6767L69.4091 26.7145L69.9635 24.2163L69.9607 24.2134Z" fill="#FFB51C"/>
<path d="M58.9434 73.8821L61.3374 71.8476L63.1452 66.6483L65.9059 64.9181C65.9059 64.9181 66.8704 63.3387 66.9166 60.6521C66.9166 60.6521 68.5829 59.1537 68.1844 57.2497L63.665 55.6789L62.198 53.7719L61.3923 52.1055L56.8931 50.9897L55.6687 49.871L53.2833 49.7638L52.3852 49.1117L53.1678 48.4886L52.1456 48.7031L51.2475 49.5029L50.4793 50.2014L48.8275 50.3202L47.037 49.7812L46.3613 46.5584L47.2796 44.7587L46.6356 43.1357L46.4162 43.1821C46.1765 43.9878 45.9714 44.808 45.804 45.6397C45.7982 45.6745 45.7924 45.7122 45.7837 45.747C45.7087 46.1295 45.6422 46.5121 45.5816 46.8975C45.5643 47.0077 45.5556 47.1207 45.5383 47.2308C45.495 47.5496 45.4516 47.8713 45.417 48.1959C45.6942 48.4915 45.7346 48.677 45.7346 48.677L46.7598 50.297L48.8333 52.1924L47.8052 55.2876L47.3403 57.438C47.3403 57.438 47.8312 61.2346 51.8828 62.7503L52.2495 64.5066C52.2495 64.5066 52.5065 65.3703 53.4277 65.405L53.2487 69.6479C53.2487 69.6479 53.2574 69.8015 53.292 70.0131C53.6934 70.4072 54.1064 70.7869 54.5309 71.152C54.5626 71.1781 54.5944 71.2071 54.6262 71.2332C55.4983 71.9809 56.4166 72.6736 57.3811 73.3053C57.3869 73.3111 57.3956 73.314 57.4013 73.3198C57.8865 73.6386 58.3861 73.94 58.8943 74.227L58.9348 73.8734L58.9434 73.8821Z" fill="#FFB51C"/>
<path d="M71.9569 24.3898C86.6442 24.3898 98.5535 36.304 98.6228 51.0266C98.6228 50.9831 98.6257 50.9425 98.6257 50.899C98.6286 36.1156 86.6875 24.1318 71.9569 24.1318C57.2262 24.1318 45.2881 36.1156 45.2881 50.8961C45.2881 50.9396 45.291 50.9802 45.291 51.0237C45.3603 36.304 57.2724 24.3898 71.9569 24.3898Z" fill="#FFEB63"/>
<g opacity="0.2">
<path d="M67.2749 24.5527C65.7588 24.8223 64.2831 25.2164 62.8652 25.7294C77.6132 30.1403 89.9383 38.4899 98.6046 49.9549C98.5468 48.2595 98.3302 46.6018 97.9722 45.002C89.9961 35.7656 79.5278 28.784 67.2749 24.5527Z" fill="#FFFB72"/>
<path d="M94.4954 65.1989C86.0284 49.0186 70.6365 37.913 51.3142 33.9541C49.1946 36.5537 47.5515 39.5591 46.5205 42.8398C64.9649 46.419 79.4616 57.2725 86.7735 73.1543C89.8692 71.0734 92.5029 68.3608 94.4983 65.1989H94.4954Z" fill="#FFFB72"/>
<path d="M57.6788 28.2939C55.9433 29.401 54.3405 30.7023 52.9082 32.1688C71.907 36.2493 87.1199 47.1318 95.7977 62.889C96.8114 60.8632 97.5795 58.6925 98.056 56.4117C89.1096 42.4774 74.9912 32.6469 57.6788 28.2939Z" fill="#FFFB72"/>
</g>
<path d="M73.3684 164.984C85.9265 164.984 96.1069 160.569 96.1069 155.122C96.1069 149.675 85.9265 145.26 73.3684 145.26C60.8103 145.26 50.6299 149.675 50.6299 155.122C50.6299 160.569 60.8103 164.984 73.3684 164.984Z" fill="#FFC01C"/>
<path d="M67.6445 145.576C69.9201 151.827 71.4218 158.336 72.0975 164.967C72.5191 164.976 72.9436 164.984 73.3681 164.984C76.0596 164.984 78.6384 164.782 81.0324 164.408C80.397 157.933 79.0629 151.557 77.053 145.39C75.8516 145.306 74.6214 145.26 73.3681 145.26C71.39 145.26 69.4725 145.37 67.6445 145.576Z" fill="#FFA91C"/>
<path d="M84.0555 146.416C82.5106 146.06 80.8616 145.776 79.1318 145.579C81.0291 151.586 82.3026 157.783 82.9293 164.069C84.4916 163.753 85.9557 163.364 87.3014 162.912C86.7036 157.322 85.6149 151.801 84.0555 146.416Z" fill="#FFA91C"/>
<path d="M90.6225 148.703C89.8284 148.3 88.9621 147.926 88.0293 147.587C89.2422 152.154 90.1316 156.806 90.6861 161.51C91.4571 161.118 92.1588 160.701 92.7826 160.258C92.2859 156.362 91.564 152.505 90.6254 148.703H90.6225Z" fill="#FFA91C"/>
<path d="M94.5761 154.02C94.5761 158.857 85.081 162.781 73.3681 162.781C61.6552 162.781 52.1602 158.86 52.1602 154.02C52.1602 149.18 61.6552 145.262 73.3681 145.262C85.081 145.262 94.5761 149.183 94.5761 154.02Z" fill="#FF991D"/>
<path d="M94.4955 152.91L94.4753 152.817C94.4464 152.464 94.3742 152.113 94.2558 151.768L93.0054 145.801L88.0384 146.557C84.238 144.966 79.0689 143.984 73.3684 143.984C67.6679 143.984 62.1435 145.033 58.3114 146.723L53.5985 146.468L52.2441 152.516L52.2932 152.554C52.2644 152.751 52.2441 152.948 52.2441 153.145C52.2441 158.205 61.7017 162.306 73.3684 162.306C85.0351 162.306 94.4926 158.205 94.4926 153.145C94.4926 153.067 94.4839 152.988 94.4781 152.913L94.4926 152.907L94.4955 152.91Z" fill="#009658"/>
<path d="M67.2119 144.384C69.4153 150.154 70.9545 156.159 71.7862 162.283C72.3089 162.3 72.8373 162.312 73.3687 162.312C75.959 162.312 78.4368 162.109 80.7297 161.738C79.9586 155.73 78.5841 149.818 76.6261 144.094C75.5634 144.022 74.4776 143.984 73.3687 143.984C71.2259 143.984 69.1583 144.123 67.2119 144.381V144.384Z" fill="#008458"/>
<path d="M83.6818 145.155C82.1339 144.778 80.4677 144.482 78.709 144.282C80.5543 149.841 81.8653 155.568 82.6191 161.384C84.1871 161.051 85.6484 160.636 86.9681 160.155C86.275 155.069 85.1719 150.055 83.6789 145.152L83.6818 145.155Z" fill="#008458"/>
<path d="M89.9915 146.262L88.0423 146.56C87.9383 146.517 87.8286 146.476 87.7246 146.433C88.8393 150.438 89.6999 154.51 90.3063 158.631C91.086 158.179 91.7704 157.692 92.348 157.182C91.7646 153.501 90.9763 149.855 89.9944 146.265L89.9915 146.262Z" fill="#008458"/>
<path d="M73.3684 155.684C84.2886 155.684 93.1412 151.776 93.1412 146.955C93.1412 142.134 84.2886 138.226 73.3684 138.226C62.4483 138.226 53.5957 142.134 53.5957 146.955C53.5957 151.776 62.4483 155.684 73.3684 155.684Z" fill="#3DE784"/>
<path d="M73.3684 155.377C84.2886 155.377 93.1412 151.537 93.1412 146.801C93.1412 142.065 84.2886 138.226 73.3684 138.226C62.4483 138.226 53.5957 142.065 53.5957 146.801C53.5957 151.537 62.4483 155.377 73.3684 155.377Z" fill="#00C552"/>
<path d="M73.3678 154.716C83.8669 154.716 92.3781 151.024 92.3781 146.471C92.3781 141.917 83.8669 138.226 73.3678 138.226C62.8686 138.226 54.3574 141.917 54.3574 146.471C54.3574 151.024 62.8686 154.716 73.3678 154.716Z" fill="#FFC51C"/>
<path d="M91.5263 143.775L89.4413 138.868L85.2251 139.949C81.9735 138.871 77.8555 138.222 73.3678 138.222C69.1488 138.222 65.2531 138.793 62.0996 139.761L57.5052 138.222L55.1285 143.897C54.6318 144.601 54.3604 145.349 54.3604 146.12C54.3604 150.481 62.8707 154.017 73.3707 154.017C83.8707 154.017 92.3811 150.481 92.3811 146.12C92.3811 145.302 92.0807 144.514 91.5263 143.772V143.775Z" fill="#FFE51B"/>
<path d="M79.3083 153.623C78.1358 148.363 76.4869 143.216 74.3846 138.243C74.0467 138.234 73.7117 138.226 73.371 138.226C73.0735 138.226 72.7847 138.234 72.4902 138.24C70.2897 139.199 68.0892 140.159 65.8887 141.118C67.682 145.256 69.1086 149.537 70.1799 153.905C71.2167 153.977 72.2823 154.018 73.3681 154.018C75.4415 154.018 77.437 153.878 79.3083 153.623Z" fill="#FFD91C"/>
<path d="M87.8073 139.29L85.6328 139.849C86.8977 143.414 87.9575 147.045 88.8094 150.728C89.5775 150.285 90.236 149.807 90.7702 149.303C89.9558 145.918 88.9653 142.576 87.8073 139.29Z" fill="#FFD91C"/>
<path d="M81.5778 139.005C79.9953 138.689 78.2944 138.46 76.5068 138.335C78.5023 143.19 80.0733 148.204 81.2082 153.316C82.7762 153.02 84.2317 152.641 85.537 152.189C84.5349 147.708 83.2123 143.3 81.5778 139.002V139.005Z" fill="#FFD91C"/>
<path d="M90.1635 137.797L90.1549 137.782C90.0971 137.663 90.0307 137.547 89.9614 137.432L89.3318 136.29L89.0662 136.33C86.3949 133.722 80.3739 131.902 73.371 131.902C66.3681 131.902 60.8726 133.565 58.0426 135.994L57.5199 135.942L56.6997 137.562C56.6304 137.681 56.5698 137.802 56.5149 137.924L56.4918 137.971V137.976C56.3041 138.42 56.1973 138.878 56.1973 139.347C56.1973 143.46 63.8846 146.795 73.371 146.795C82.8574 146.795 90.5447 143.46 90.5447 139.347C90.5447 138.814 90.4119 138.292 90.1664 137.791L90.1635 137.797Z" fill="#009658"/>
<path d="M79.9493 134.989C78.5834 135.586 77.2146 136.18 75.8486 136.777C77.2001 139.898 78.3697 143.089 79.366 146.335C80.9427 146.08 82.4068 145.729 83.7265 145.295C82.6667 141.794 81.4076 138.354 79.9522 134.989H79.9493Z" fill="#008458"/>
<path d="M77.434 146.59C76.4811 143.521 75.3693 140.501 74.0871 137.545C71.3523 138.736 68.6205 139.93 65.8857 141.121C66.6395 142.863 67.3239 144.634 67.9505 146.422C69.6543 146.668 71.4736 146.802 73.3651 146.802C74.7657 146.802 76.1259 146.726 77.4311 146.59H77.434Z" fill="#008458"/>
<path d="M85.8864 134.261C85.1933 133.94 84.4396 133.647 83.6253 133.383C83.4751 133.45 83.322 133.514 83.1719 133.58C84.6302 136.951 85.8951 140.394 86.9722 143.895C87.7173 143.475 88.3641 143.023 88.8926 142.539C88.0118 139.739 87.0098 136.977 85.8864 134.261Z" fill="#008458"/>
<path d="M73.3684 144.286C82.2455 144.286 89.4419 141.117 89.4419 137.209C89.4419 133.3 82.2455 130.131 73.3684 130.131C64.4913 130.131 57.2949 133.3 57.2949 137.209C57.2949 141.117 64.4913 144.286 73.3684 144.286Z" fill="#3DE784"/>
<path d="M73.3684 144.071C82.2455 144.071 89.4419 140.951 89.4419 137.101C89.4419 133.252 82.2455 130.131 73.3684 130.131C64.4913 130.131 57.2949 133.252 57.2949 137.101C57.2949 140.951 64.4913 144.071 73.3684 144.071Z" fill="#00C552"/>
<path d="M97.4473 56.3213C95.9312 61.2858 92.0558 65.6706 87.2476 67.6327C83.5715 69.131 78.0991 68.876 75.4596 60.112C74.5558 60.17 75.168 63.3724 74.2612 63.3087C73.984 63.3347 73.649 63.3637 73.3429 63.413C72.5025 66.4155 69.7562 68.9861 67.4027 70.8409C64.8037 72.8899 61.7946 74.0405 58.4852 74.1477C55.4039 74.2462 52.2302 73.6231 50.1568 71.1829C49.1056 69.9454 47.988 68.4239 47.295 66.7922L46.8271 67.2878C46.8271 67.2878 59.6374 96.4981 62.1296 107.076C64.5524 117.356 62.3375 130.044 58.8577 135.545C58.7537 135.681 58.6613 135.82 58.5834 135.962C58.5747 135.977 58.5631 135.991 58.5545 136.006V136.011C58.3235 136.432 58.1964 136.869 58.1964 137.315C58.1964 140.66 64.9885 143.37 73.3689 143.37C81.7493 143.37 88.5414 140.66 88.5414 137.315C88.5414 136.858 88.4085 136.408 88.1659 135.979V135.974C88.1659 135.974 88.1399 135.933 88.0966 135.861C88.0822 135.837 88.0678 135.814 88.0533 135.788C87.3314 134.577 83.3144 127.41 83.6032 118.396C83.9209 108.496 89.6503 88.1631 89.6503 88.1631C89.6503 88.1631 97.713 65.0273 97.713 65.0968C97.713 65.1664 98.8421 58.7267 98.8421 58.7267L97.4415 56.3184L97.4473 56.3213Z" fill="#FFC01C"/>
<path d="M49.6454 71.1832C51.6438 73.5364 54.6644 74.1972 57.6389 74.1538C54.8319 74.1161 52.0394 73.4031 50.1537 71.1832C49.1025 69.9457 47.985 68.4241 47.2919 66.7925L46.9482 67.1547C47.6471 68.6502 48.6723 70.0384 49.6454 71.1832Z" fill="#FFD61C"/>
<path d="M83.6201 68.3251C80.5706 68.2295 77.3132 66.2762 75.4592 60.1118C75.2744 60.1234 75.156 60.2712 75.0723 60.4915C77.0533 66.6877 80.4984 68.4324 83.623 68.3251H83.6201Z" fill="#FFD61C"/>
<path d="M97.4469 56.3213C97.3891 56.5067 97.3227 56.6922 97.2592 56.8748L98.3363 58.7296C98.3363 58.7296 97.2072 65.1693 97.2072 65.0997C97.2072 65.0302 89.1445 88.166 89.1445 88.166C89.1445 88.166 83.4151 108.499 83.0974 118.399C82.8086 127.413 86.8256 134.58 87.5475 135.791C87.5619 135.814 87.5764 135.837 87.5908 135.864C87.6341 135.936 87.6601 135.977 87.6601 135.977V135.982C87.9027 136.411 88.0355 136.858 88.0355 137.318C88.0355 140.628 81.3792 143.315 73.1172 143.37C73.2009 143.37 73.2876 143.37 73.3713 143.37C81.7517 143.37 88.5438 140.66 88.5438 137.315C88.5438 136.858 88.411 136.408 88.1684 135.979V135.974C88.1684 135.974 88.1424 135.933 88.0991 135.861C88.0846 135.837 88.0702 135.814 88.0558 135.788C87.3338 134.577 83.3169 127.41 83.6057 118.396C83.9233 108.496 89.6527 88.1631 89.6527 88.1631C89.6527 88.1631 97.7154 65.0273 97.7154 65.0968C97.7154 65.1664 98.8446 58.7267 98.8446 58.7267L97.444 56.3184L97.4469 56.3213Z" fill="#FFD61C"/>
<path d="M58.822 137.316C58.822 136.867 58.9491 136.432 59.1801 136.012V136.006C59.1801 136.006 59.1974 135.977 59.209 135.963C59.2899 135.821 59.3794 135.682 59.4833 135.545C62.9631 130.048 65.1752 117.357 62.7552 107.077C60.2602 96.4989 47.4499 67.2886 47.4499 67.2886L47.4961 67.2393C47.4268 67.0915 47.3546 66.9437 47.2911 66.793L46.8232 67.2886C46.8232 67.2886 59.6335 96.4989 62.1257 107.077C64.5485 117.357 62.3336 130.045 58.8538 135.545C58.7498 135.682 58.6574 135.821 58.5795 135.963C58.5708 135.977 58.5592 135.992 58.5506 136.006V136.012C58.3196 136.432 58.1925 136.87 58.1925 137.316C58.1925 140.661 64.9846 143.37 73.365 143.37C73.4689 143.37 73.5729 143.37 73.6768 143.368C65.4409 143.301 58.8163 140.617 58.8163 137.316H58.822Z" fill="#FFD61C"/>
<path d="M87.8735 67.6332C92.4593 65.761 96.1932 61.6862 97.8421 57.0028L97.4465 56.3218C95.9304 61.2863 92.055 65.6712 87.2468 67.6332C86.3198 68.01 85.2802 68.2766 84.2002 68.323C85.5026 68.3722 86.7703 68.0824 87.8735 67.6332Z" fill="#FFD61C"/>
<path d="M59.1109 74.148C62.4203 74.0437 65.4294 72.8931 68.0284 70.8412C70.379 68.9864 73.1282 66.4186 73.9686 63.4133C74.2747 63.364 74.6097 63.3321 74.8869 63.3089C75.5626 63.3582 75.398 61.6019 75.6377 60.6716C75.5771 60.4862 75.5164 60.3036 75.4587 60.1123C74.5548 60.1703 75.167 63.3727 74.2602 63.3089C73.983 63.335 73.648 63.364 73.3419 63.4133C72.5016 66.4158 69.7553 68.9864 67.4017 70.8412C64.8027 72.8902 61.7936 74.0408 58.4842 74.148C58.3918 74.1509 58.2994 74.1509 58.2041 74.1538C58.5073 74.1596 58.8077 74.1596 59.1109 74.148Z" fill="#FFD61C"/>
<path d="M72.9465 63.2538C72.9465 63.2538 72.0224 69.934 63.2493 72.4119C53.0438 75.2897 44.9869 60.7672 45.2872 50.2324C45.2872 50.2324 44.932 50.2266 44.6836 50.5889C44.6836 50.5889 42.7142 64.0536 50.2888 73.1248C57.8664 82.196 68.9151 76.7967 72.9523 65.3926L74.2518 64.1174L72.9465 63.2538Z" fill="#FFE91B"/>
<path d="M72.9035 63.0016C72.9035 63.0016 71.9563 69.5543 63.1745 71.983C52.9633 74.8057 44.9526 60.5643 45.2875 50.2324C45.2875 50.2324 44.9323 50.2266 44.6811 50.5831C44.6811 50.5831 42.6683 63.7899 50.2141 72.6843C57.7628 81.5787 68.8289 76.2867 72.9006 65.0999L74.203 63.8508L72.9006 63.0045L72.9035 63.0016Z" fill="#FFA21C"/>
<path d="M75.4355 60.3413C75.4355 60.3413 77.07 70.3283 83.9459 71.4296C90.8159 72.5309 97.3972 63.8191 98.8382 53.9045L98.6534 51.6382C98.6534 51.6382 95.988 64.8131 87.134 67.7431C78.1963 70.7021 75.4355 60.3413 75.4355 60.3413Z" fill="#FFE91B"/>
<path d="M75.459 60.1124C75.459 60.1124 77.1195 69.8385 83.9982 70.9108C90.8712 71.9831 97.4293 63.5003 98.8472 53.8466L98.6566 51.6411C98.6566 51.6411 96.0259 64.4683 87.1805 67.3229C78.2486 70.2037 75.4619 60.1153 75.4619 60.1153L75.459 60.1124Z" fill="#FFA21C"/>
<path d="M97.7674 60.002C100.208 65.8475 97.675 86.8358 91.4056 99.4775C86.8515 108.662 85.0813 112.197 82.3494 117C77.498 125.532 61.6699 141.202 60.7285 138.081C62.8828 136.974 71.5231 129.418 69.8395 129.644C67.8007 131.925 58.5222 140.97 59.2153 137.289C60.4975 136.562 71.8148 126.21 67.0586 129.804C65.3143 131.186 62.5045 133.458 58.9034 137.275C58.0949 138.133 57.2689 137.197 57.9736 136.475C78.913 115.078 72.8342 102.173 71.6155 84.7897C71.0062 76.0953 70.5961 64.5549 72.5829 61.9466C76.8944 56.2866 71.0957 73.7131 75.309 89.221C77.0041 95.4578 79.0891 95.0665 78.7744 94.0261C78.3961 92.7712 68.4303 73.0871 80.8131 69.6904C99.6213 64.5318 90.8482 94.2753 87.1085 98.7356C90.8107 94.3217 91.7781 89.4441 93.5859 81.1526C96.182 69.2441 94.1779 58.4341 97.7645 59.9991L97.7674 60.002Z" fill="#FFA21C"/>
<path d="M98.2498 58.5444C100.598 64.4276 98.8562 88.1054 92.3904 100.646C87.692 109.757 85.8669 113.264 83.06 118.023C78.0727 126.477 62.0022 141.895 61.1127 138.759C63.2843 137.684 72.043 130.267 70.3565 130.467C68.2831 132.713 58.8631 141.614 59.6111 137.945C60.9048 137.237 72.3838 127.065 67.5698 130.583C65.8025 131.94 62.958 134.165 59.2963 137.924C58.4733 138.771 57.6647 137.82 58.3809 137.11C79.6524 116.046 74.6218 101.425 73.0682 85.7637C72.2076 77.0895 71.8611 63.0423 73.8883 60.4629C78.2864 54.8724 72.4877 74.5624 76.4556 90.1369C78.0525 96.3998 80.1433 96.0434 79.8458 94.9971C79.4878 93.7364 69.831 73.8958 82.2658 70.6962C101.152 65.8361 91.9139 95.4347 88.102 99.8399C91.8735 95.484 92.9189 90.6238 94.8566 82.3612C97.6376 70.4963 94.6833 56.9243 98.2469 58.5473L98.2498 58.5444Z" fill="#FFE91B"/>
<path d="M86.706 79.8393C86.2815 80.8189 86.1747 82.3954 86.4375 83.262C86.7003 84.1285 87.2778 84.6386 88.0113 84.9371C88.9672 85.3255 90.0819 85.4008 90.9453 84.5401C91.8463 83.6416 92.1495 82.3694 92.0773 80.9754C91.9994 79.5002 91.6268 78.5554 90.3764 78.0309C89.4494 77.6396 87.5291 77.6309 86.706 79.8393Z" fill="#FFE91B"/>
<path d="M86.5563 79.7555C86.2184 80.5438 86.0971 81.4799 86.1289 82.329C86.1433 82.7261 86.1953 83.126 86.3224 83.4825C86.461 83.8708 86.6689 84.2099 86.9317 84.4766C87.1945 84.7432 87.5122 84.9461 87.8414 85.091C88.1706 85.2359 88.5229 85.346 88.881 85.3953C89.5943 85.4938 90.3566 85.3431 90.966 84.778C91.6186 84.178 92.0373 83.2941 92.1846 82.3464C92.2597 81.8595 92.2741 81.364 92.2453 80.88C92.2222 80.509 92.1817 80.1409 92.0951 79.7874C91.9305 79.1092 91.5897 78.5673 91.1017 78.2021C90.6801 77.8862 90.1834 77.6949 89.678 77.6399C89.1726 77.5848 88.6528 77.6514 88.1648 77.8775C87.6017 78.1383 87.1281 78.6136 86.7931 79.228C86.7036 79.3961 86.6256 79.5729 86.5563 79.7526C86.5159 79.8569 86.5419 79.9815 86.6256 80.0279C86.7036 80.0714 86.8191 80.0279 86.8595 79.9236C86.9895 79.5729 87.1367 79.2889 87.3475 79.0107C87.4515 78.8745 87.5179 78.802 87.6306 78.6948C87.7345 78.5962 87.8443 78.5093 87.9598 78.431C88.006 78.3992 87.9309 78.4484 87.9771 78.4194C87.9915 78.4108 88.006 78.4021 88.0204 78.3934C88.0493 78.376 88.0782 78.3586 88.107 78.3441C88.1648 78.3122 88.2226 78.2832 88.2803 78.2572C88.3381 78.2311 88.3987 78.2079 88.4565 78.1847C88.4825 78.176 88.5056 78.1673 88.5315 78.1586C88.546 78.1528 88.5604 78.1499 88.5749 78.1441C88.5951 78.1383 88.5951 78.1383 88.5749 78.1441C88.5835 78.1441 88.5951 78.1383 88.6037 78.1354C88.8348 78.0717 89.0716 78.0398 89.3055 78.0369C89.3344 78.0369 89.3632 78.0369 89.3892 78.0369C89.3459 78.0369 89.4268 78.0369 89.4412 78.0369C89.4961 78.0369 89.5509 78.0427 89.6058 78.0485C89.7098 78.0601 89.8137 78.0775 89.9148 78.0978C90.0072 78.118 90.1025 78.1441 90.192 78.176C90.2036 78.1789 90.2122 78.1847 90.2238 78.1876C90.1747 78.1702 90.2122 78.1847 90.2238 78.1876C90.2411 78.1934 90.2584 78.2021 90.2758 78.2079C90.3537 78.2398 90.4317 78.2745 90.5068 78.3122C90.7783 78.4484 90.9977 78.5991 91.2114 78.8252C91.2547 78.8716 91.2952 78.9208 91.3356 78.973C91.3789 79.0281 91.3991 79.057 91.4482 79.1353C91.5204 79.2541 91.5839 79.3816 91.6388 79.5178C91.6273 79.4889 91.6561 79.5613 91.659 79.5729C91.6706 79.6077 91.685 79.6425 91.6937 79.6772C91.7197 79.7555 91.7428 79.8366 91.7601 79.9178C91.7774 79.9873 91.7919 80.0598 91.8063 80.1322C91.8236 80.2163 91.8381 80.309 91.8467 80.367C91.8987 80.7611 91.9218 81.164 91.9103 81.5697C91.8872 82.4189 91.6821 83.2796 91.1999 83.9549C90.9688 84.2795 90.6858 84.5635 90.3711 84.7374C90.0563 84.9113 89.7502 84.9837 89.421 85.0011C89.0918 85.0185 88.7655 84.9605 88.4507 84.8678C88.1359 84.7751 87.8269 84.6446 87.541 84.4534C87.0126 84.1027 86.6285 83.526 86.5159 82.7753C86.4957 82.6304 86.4783 82.4102 86.4725 82.2363C86.4668 82.0305 86.4726 81.8248 86.4841 81.6161C86.5101 81.2277 86.5794 80.8075 86.6834 80.4192C86.7267 80.2569 86.7873 80.0859 86.8595 79.9178C86.9635 79.6714 86.6631 79.5033 86.5563 79.7468V79.7555Z" fill="#FFA21C"/>
<path d="M90.4514 81.8985C90.4988 81.6452 90.3835 81.4109 90.1938 81.3751C90.0042 81.3394 89.812 81.5157 89.7646 81.769C89.7171 82.0222 89.8325 82.2565 90.0221 82.2923C90.2118 82.328 90.404 82.1517 90.4514 81.8985Z" fill="#FFA21C"/>
<path d="M93.2079 85.9985C91.6976 86.8999 88.2294 88.3547 85.252 86.7607C84.7727 86.5579 88.4488 89.5922 93.205 86.042C93.205 86.0275 93.205 86.013 93.2079 85.9985Z" fill="#FFB51C"/>
<path d="M93.2454 85.8389C92.304 86.4214 91.2615 86.8387 90.2421 87.0909C88.7087 87.4676 87.1088 87.4705 85.6823 86.8387C85.587 86.7953 85.4946 86.7518 85.4022 86.7054C85.3559 86.6822 85.3097 86.6503 85.2606 86.6388C85.2173 86.6272 85.1711 86.6359 85.1394 86.6822C85.0729 86.775 85.1336 86.8619 85.1913 86.9141C85.3646 87.0735 85.5783 87.1865 85.7776 87.2879C86.6526 87.7314 87.6286 87.9226 88.6018 87.9081C90.1093 87.885 91.608 87.3111 92.9537 86.375C93.0346 86.3171 93.1155 86.2562 93.1963 86.1953C93.2021 86.0765 93.2223 85.9606 93.2512 85.8447L93.2454 85.8389ZM89.061 87.6357C88.4459 87.6908 87.8308 87.6473 87.2301 87.5198C88.1282 87.6444 89.0523 87.5922 89.962 87.3981C90.4818 87.2879 91.0016 87.1285 91.5156 86.9373C90.7244 87.314 89.8984 87.5604 89.061 87.6357Z" fill="#FFB51C"/>
<path d="M86.4153 87.2998C86.3604 87.7693 86.1958 88.2649 86.3633 88.6416C86.5308 89.0184 86.9611 89.256 87.2758 89.0648C87.631 88.8474 87.7177 88.0562 87.7581 87.5548" fill="#FFE91B"/>
<path d="M86.3174 87.2794C86.2712 87.6561 86.1528 88.0503 86.199 88.4271C86.2394 88.7458 86.4185 88.9951 86.6466 89.1371C86.8545 89.2646 87.1202 89.3023 87.3426 89.1487C87.5389 89.0125 87.6429 88.7487 87.7122 88.5024C87.7959 88.1981 87.8277 87.8793 87.8537 87.5692C87.8595 87.5025 87.8364 87.4417 87.7786 87.4301C87.7324 87.4214 87.6631 87.4649 87.6573 87.5315C87.6371 87.7721 87.614 88.0126 87.5678 88.2474C87.5245 88.4589 87.4667 88.6995 87.3339 88.8647C87.201 89.0299 86.9902 89.0357 86.8285 88.9603C86.6322 88.8705 86.4531 88.6821 86.404 88.4242C86.3376 88.0706 86.4675 87.6706 86.5109 87.3142C86.5282 87.1577 86.3347 87.12 86.3145 87.2765L86.3174 87.2794Z" fill="#FFB51C"/>
<path d="M88.75 87.5778C88.7644 88.6588 88.9204 89.1602 89.4893 89.0472C90.1044 88.911 90.1535 87.8792 90.139 87.3691" fill="#FFE91B"/>
<path d="M88.6484 87.5923C88.6542 87.943 88.6628 88.3111 88.7552 88.6414C88.8188 88.8646 88.9343 89.0704 89.1249 89.1486C89.3357 89.2327 89.6014 89.1863 89.792 89.0211C89.997 88.8472 90.1067 88.5603 90.1674 88.2792C90.2309 87.9778 90.2453 87.6619 90.2367 87.3576C90.2309 87.2011 90.0316 87.2301 90.0345 87.3837C90.0403 87.6155 90.0345 87.8503 89.9999 88.085C89.9652 88.3198 89.8988 88.5777 89.7515 88.7574C89.6187 88.9197 89.4165 88.9718 89.2491 88.9313C89.1076 88.8994 89.0151 88.769 88.9603 88.598C88.8592 88.2792 88.8534 87.9111 88.8477 87.5662C88.8477 87.4097 88.6455 87.4358 88.6455 87.5923H88.6484Z" fill="#FFB51C"/>
<path d="M91.1982 87.0266C91.2213 87.7454 91.2416 88.4641 91.8884 88.3743C92.5757 88.2815 92.5411 87.1831 92.518 86.4673" fill="#FFE91B"/>
<path d="M91.0966 87.0417C91.114 87.5865 91.1168 88.4241 91.6857 88.4994C91.9225 88.5313 92.1767 88.4502 92.347 88.2241C92.5059 88.0125 92.5694 87.7198 92.5983 87.4532C92.6358 87.1199 92.6272 86.7895 92.6156 86.4591C92.6098 86.3026 92.4106 86.3316 92.4135 86.4852C92.4221 86.7403 92.4279 86.9982 92.4135 87.2532C92.399 87.488 92.3673 87.7372 92.2691 87.9488C92.1709 88.1603 92.0034 88.2502 91.8157 88.2589C91.6164 88.2705 91.4663 88.1574 91.3941 87.9372C91.3017 87.6503 91.3017 87.3199 91.293 87.0098C91.2872 86.8533 91.088 86.8823 91.0909 87.0359L91.0966 87.0417Z" fill="#FFB51C"/>
<path d="M81.8496 81.5471C82.1796 80.8432 82.0073 80.0649 81.4647 79.8086C80.9221 79.5524 80.2147 79.9153 79.8847 80.6191C79.5546 81.323 79.727 82.1013 80.2696 82.3575C80.8122 82.6138 81.5196 82.2509 81.8496 81.5471Z" fill="#FFB51C"/>
<path d="M87.1758 106.336C87.5058 105.632 87.3335 104.854 86.7909 104.598C86.2483 104.341 85.5409 104.704 85.2108 105.408C84.8808 106.112 85.0532 106.89 85.5958 107.147C86.1384 107.403 86.8458 107.04 87.1758 106.336Z" fill="#FFB51C"/>
<path d="M83.2807 92.0699C83.5486 91.8932 83.5805 91.4669 83.3519 91.1178C83.1233 90.7687 82.7208 90.6289 82.4529 90.8056C82.185 90.9823 82.1531 91.4085 82.3817 91.7576C82.6103 92.1068 83.0128 92.2465 83.2807 92.0699Z" fill="#FFB51C"/>
<path d="M76.5767 126.558C77.2076 125.212 76.8802 123.725 75.8455 123.237C74.8108 122.748 73.4606 123.443 72.8298 124.788C72.1989 126.133 72.5263 127.62 73.561 128.109C74.5957 128.598 75.9459 127.903 76.5767 126.558Z" fill="#FFB51C"/>
<path d="M72.5373 76.7559C73.5653 76.8023 74.1631 75.6865 73.9985 74.6982C73.9378 74.3417 73.831 73.51 72.4131 72.7217" fill="#FFB51C"/>
<path d="M75.4241 83.5376C74.399 83.6477 73.9773 84.8418 74.2892 85.7923C74.4018 86.1343 74.6329 86.94 76.1518 87.508" fill="#FFB51C"/>
<path d="M76.5533 76.6455C76.8248 77.3266 78.878 78.4685 80.0735 76.5644C80.2266 76.3209 80.4143 76.1818 80.524 76.0108C81.1738 74.9965 81.4106 73.4779 80.9514 73.1272C78.3928 71.1796 76.1202 75.5645 76.5533 76.6455Z" fill="#FFB51C"/>
<path d="M78.1185 105.056C78.852 105.516 81.6098 105.174 81.4308 102.517C81.4077 102.175 81.4914 101.914 81.477 101.671C81.3961 100.245 80.5645 98.6246 79.8829 98.6101C76.0797 98.5348 76.9518 104.322 78.1156 105.053L78.1185 105.056Z" fill="#FFB51C"/>
<path d="M78.5723 115.157C78.8784 115.823 80.9865 116.858 82.0838 114.896C82.2253 114.644 82.4044 114.496 82.5055 114.319C83.1032 113.273 83.2621 111.743 82.7856 111.418C80.1317 109.604 78.0842 114.099 78.5723 115.157Z" fill="#FFB51C"/>
<path d="M96.3117 65.8327C97.3397 65.8791 98.0068 65.0473 97.8393 64.062C97.7787 63.7055 97.6718 62.8737 96.2539 62.0854" fill="#FFB51C"/>
<path d="M97.6868 81.7958C96.6328 81.2597 96.7281 80.4569 96.757 80.1178C96.8349 79.1759 97.6089 77.9732 98.4925 77.8428L97.967 81.8335L97.6868 81.7958Z" fill="#FFB51C"/>
<path d="M66.7315 135.899C66.4282 136.302 65.7554 136.015 65.3193 135.82C65.4464 135.67 65.6052 135.502 65.8045 135.334C66.1366 135.055 66.2896 134.847 66.7141 134.76C67.1502 135.371 66.8499 135.742 66.7344 135.899H66.7315Z" fill="#FFB51C"/>
<path d="M61.5396 136.408C61.8024 136.982 61.4992 137.287 61.3721 137.42C61.0285 137.788 60.3065 138.031 59.8936 137.791L61.4327 136.298L61.5367 136.408H61.5396Z" fill="#FFB51C"/>
<path d="M92.0266 101.153C91.0794 100.446 91.3046 99.6718 91.3884 99.3414C91.6252 98.4256 92.5868 97.3706 93.482 97.3909L92.298 101.237L92.0266 101.153Z" fill="#FFB51C"/>
<path d="M92.0173 74.0549C90.9892 74.6403 90.377 74.1216 90.1085 73.91C89.3692 73.3246 88.6588 71.9335 89.1757 71.2003C89.5338 70.6931 89.5165 70.8844 90.0189 71.18C91.1798 71.861 92.4389 73.1246 92.205 73.8405C92.1761 73.9303 92.0808 73.9825 92.0173 74.0549Z" fill="#FFB51C"/>
<path d="M68.156 132.887C67.8037 132.363 68.052 132.015 68.156 131.864C68.4361 131.444 69.1061 131.085 69.5508 131.253" fill="#FFB51C"/>
<path d="M62.8278 134.829C62.4755 134.305 62.7239 133.957 62.8278 133.806C63.108 133.386 63.7779 133.027 64.2227 133.195" fill="#FFB51C"/>
<g opacity="0.35">
<path d="M80.6341 117.588C81.6477 117.588 82.6382 117.66 83.6085 117.785C86.3548 113.119 88.1943 109.586 92.8321 100.593C94.5042 97.3499 95.8585 93.3592 96.9097 89.1279C96.5429 89.6264 96.1589 90.1162 95.7575 90.5944C94.585 92.9564 93.0718 95.1184 91.3767 96.8196C90.8396 97.3586 90.2707 97.8687 89.6729 98.3527C89.3235 98.8396 88.9567 99.3149 88.5495 99.7873C88.8037 99.4946 89.0838 99.0859 89.3754 98.5845C85.3672 101.717 80.1663 103.598 75.1531 103.65C75.1068 108.65 74.2809 113.832 71.7686 119.419C74.6044 118.24 77.6597 117.591 80.637 117.591L80.6341 117.588Z" fill="#FFFB72"/>
</g>
</g>
<defs>
<linearGradient id="paint0_linear_2418_44842" x1="147" y1="-0.000488281" x2="147" y2="359" gradientUnits="userSpaceOnUse">
<stop stop-color="#005596"/>
<stop offset="1" stop-color="#4597D3"/>
</linearGradient>
<radialGradient id="paint1_radial_2418_44842" cx="0" cy="0" r="1" gradientTransform="matrix(3.95009 -184.93 185.532 3.94258 75.5457 175.327)" gradientUnits="userSpaceOnUse">
<stop stop-color="#5BC2A7"/>
<stop offset="1" stop-color="white"/>
</radialGradient>
<clipPath id="clip0_2418_44842">
<rect width="145" height="177" rx="10" fill="white"/>
</clipPath>
</defs>
</svg>
